Coordinates
version=1
nRows=88
nColumns=6
inDegrees=yes

Units are S.I. units (second, meters, Newtons, ...)
If the header above contains a line with 'inDegrees', this indicates whether rotational values are in degrees (yes) or radians (no).

endheader
time	foot_tx	hip_flexion_r	knee_angle_r	ankle_angle_r	lumbar
    131.95000000	      0.17852157	     61.99571875	    -41.00989588	      8.17153272	    -19.55826356
    131.96000000	      0.17860100	     61.21885883	    -40.31868057	      8.01912224	    -19.32327911
    131.97000000	      0.17865381	     60.42974294	    -39.62272761	      7.86716800	    -19.08351921
    131.98000000	      0.17867934	     59.63282481	    -38.92098109	      7.71517300	    -18.83324085
    131.99000000	      0.17868076	     58.82421508	    -38.21453371	      7.56409992	    -18.57701484
    132.00000000	      0.17866196	     57.99928849	    -37.50465106	      7.41498355	    -18.32034166
    132.01000000	      0.17862677	     57.16018471	    -36.79143455	      7.26758210	    -18.06138676
    132.02000000	      0.17857976	     56.30967373	    -36.07478973	      7.12125510	    -17.79818290
    132.03000000	      0.17852697	     55.44725032	    -35.35488240	      6.97565649	    -17.53239980
    132.04000000	      0.17847200	     54.56948563	    -34.63288303	      6.83146454	    -17.26873505
    132.05000000	      0.17842011	     53.67733298	    -33.90938204	      6.68860440	    -17.00699949
    132.06000000	      0.17837347	     52.77903804	    -33.18590732	      6.54698483	    -16.74009931
    132.07000000	      0.17833310	     51.87668086	    -32.46601505	      6.40811244	    -16.46821889
    132.08000000	      0.17830385	     50.97445705	    -31.75141144	      6.27222839	    -16.18887760
    132.09000000	      0.17828513	     50.07288314	    -31.04331942	      6.14020482	    -15.90248799
    132.10000000	      0.17827800	     49.16988788	    -30.34286851	      6.01276681	    -15.61286732
    132.11000000	      0.17828376	     48.26494093	    -29.65086419	      5.89014789	    -15.32232908
    132.12000000	      0.17830637	     47.35743060	    -28.96767644	      5.77202589	    -15.03354138
    132.13000000	      0.17834153	     46.44907486	    -28.29424472	      5.65891520	    -14.74574691
    132.14000000	      0.17839295	     45.53888617	    -27.63121422	      5.55064241	    -14.46201712
    132.15000000	      0.17845645	     44.63441951	    -26.97693106	      5.44597191	    -14.17331744
    132.16000000	      0.17853225	     43.73485726	    -26.33242816	      5.34510180	    -13.88243744
    132.17000000	      0.17861547	     42.84099799	    -25.69763103	      5.24799654	    -13.58932290
    132.18000000	      0.17869950	     41.95494416	    -25.07227190	      5.15465028	    -13.29192102
    132.19000000	      0.17877858	     41.07813632	    -24.45609358	      5.06511316	    -12.98894707
    132.20000000	      0.17884809	     40.21190912	    -23.84872001	      4.97937018	    -12.67899368
    132.21000000	      0.17890561	     39.35746604	    -23.24990368	      4.89735315	    -12.36101519
    132.22000000	      0.17895090	     38.51592356	    -22.65946447	      4.81890804	    -12.03406327
    132.23000000	      0.17898519	     37.68788238	    -22.07721852	      4.74383793	    -11.69767558
    132.24000000	      0.17901053	     36.87285271	    -21.50283381	      4.67192506	    -11.35241818
    132.25000000	      0.17903212	     36.06823157	    -20.93559933	      4.60265057	    -11.00166121
    132.26000000	      0.17904468	     35.27438536	    -20.37553835	      4.53652058	    -10.64375753
    132.27000000	      0.17905426	     34.48779663	    -19.82182521	      4.47288558	    -10.28377791
    132.28000000	      0.17906077	     33.70808377	    -19.27375248	      4.41147829	     -9.92188760
    132.29000000	      0.17906410	     32.93436505	    -18.73127162	      4.35233282	     -9.55995622
    132.30000000	      0.17906978	     32.16582354	    -18.19404166	      4.29489442	     -9.20049792
    132.31000000	      0.17907295	     31.40830202	    -17.66293729	      4.23954604	     -8.83726180
    132.32000000	      0.17908076	     30.65963708	    -17.13970447	      4.18649919	     -8.47726875
    132.33000000	      0.17909402	     29.92228381	    -16.62589146	      4.13600848	     -8.12072485
    132.34000000	      0.17910839	     29.19749596	    -16.12325227	      4.08873511	     -7.76901551
    132.35000000	      0.17912689	     28.48860343	    -15.63318834	      4.04451718	     -7.42163694
    132.36000000	      0.17914733	     27.79928268	    -15.15663527	      4.00330398	     -7.07597689
    132.37000000	      0.17917062	     27.12632362	    -14.69588167	      3.96601667	     -6.73946293
    132.38000000	      0.17919672	     26.47267217	    -14.25212445	      3.93282685	     -6.40976990
    132.39000000	      0.17922593	     25.83886870	    -13.82633404	      3.90400861	     -6.08709639
    132.40000000	      0.17925865	     25.22505730	    -13.41870390	      3.87957659	     -5.77102881
    132.41000000	      0.17929647	     24.62906559	    -13.02898978	      3.85953473	     -5.46334415
    132.42000000	      0.17933731	     24.05428665	    -12.65466413	      3.84271338	     -5.15612375
    132.43000000	      0.17938390	     23.49536817	    -12.29482468	      3.82902854	     -4.85459034
    132.44000000	      0.17943175	     22.95267671	    -11.94661790	      3.81748355	     -4.55454987
    132.45000000	      0.17947984	     22.42655115	    -11.60775096	      3.80709189	     -4.25334081
    132.46000000	      0.17952700	     21.91494439	    -11.27649505	      3.79726448	     -3.95191612
    132.47000000	      0.17957029	     21.41771785	    -10.95136885	      3.78752596	     -3.64907841
    132.48000000	      0.17960718	     20.93525198	    -10.63164551	      3.77764476	     -3.34384519
    132.49000000	      0.17963607	     20.46754134	    -10.31716863	      3.76750075	     -3.03668337
    132.50000000	      0.17965855	     20.01519099	    -10.00842036	      3.75669487	     -2.73022473
    132.51000000	      0.17966762	     19.57692722	     -9.70562193	      3.74616032	     -2.42169456
    132.52000000	      0.17966961	     19.15562748	     -9.41017811	      3.73509273	     -2.11508086
    132.53000000	      0.17966284	     18.74922886	     -9.12351320	      3.72450728	     -1.81205575
    132.54000000	      0.17964816	     18.35832762	     -8.84524661	      3.71408279	     -1.51219521
    132.55000000	      0.17962751	     17.98123617	     -8.57684511	      3.70460479	     -1.21786342
    132.56000000	      0.17959868	     17.61565736	     -8.31364529	      3.69438037	     -0.92753462
    132.57000000	      0.17956155	     17.28786180	     -8.06354496	      3.68559718	     -0.61493382
    132.58000000	      0.17950824	     16.90968990	     -7.81111895	      3.67707518	     -0.37094298
    132.59000000	      0.17944096	     16.56761375	     -7.56813832	      3.66917130	     -0.10108637
    132.60000000	      0.17936979	     16.23178836	     -7.32905890	      3.66010707	      0.16114291
    132.61000000	      0.17928804	     15.90270204	     -7.09655005	      3.65185112	      0.41677180
    132.62000000	      0.17919812	     15.57819968	     -6.87005439	      3.64447717	      0.66548310
    132.63000000	      0.17910655	     15.26084855	     -6.64727413	      3.63598022	      0.90883591
    132.64000000	      0.17901264	     14.95043734	     -6.43014274	      3.62726898	      1.14628472
    132.65000000	      0.17891150	     14.64642377	     -6.21800795	      3.61849070	      1.37763247
    132.66000000	      0.17879457	     14.34490874	     -6.01009443	      3.61047432	      1.60246645
    132.67000000	      0.17866848	     14.04841274	     -5.80313738	      3.60056088	      1.82191968
    132.68000000	      0.17852984	     13.75368009	     -5.59573472	      3.58864226	      2.03543267
    132.69000000	      0.17837490	     13.45904324	     -5.38626360	      3.57446366	      2.24201746
    132.70000000	      0.17820476	     13.16301292	     -5.17297888	      3.55746330	      2.44203904
    132.71000000	      0.17801966	     12.86569489	     -4.95626562	      3.53775636	      2.63500767
    132.72000000	      0.17782158	     12.56713705	     -4.73668183	      3.51554610	      2.82027615
    132.73000000	      0.17761413	     12.26962475	     -4.51620042	      3.49133270	      2.99799510
    132.74000000	      0.17739904	     11.97627714	     -4.29743636	      3.46583465	      3.16825201
    132.75000000	      0.17718113	     11.69160164	     -4.08410076	      3.43995507	      3.33148271
    132.76000000	      0.17696855	     11.41809671	     -3.88206951	      3.41567888	      3.48474697
    132.77000000	      0.17676885	     11.16085937	     -3.69619182	      3.39437238	      3.62866480
    132.78000000	      0.17658972	     10.92305643	     -3.53144583	      3.37778861	      3.76249022
    132.79000000	      0.17643761	     10.70840749	     -3.39231278	      3.36760248	      3.88710525
    132.80000000	      0.17631997	     10.54374267	     -3.28499410	      3.36513879	      4.03087483
    132.81000000	      0.17624911	     10.35617707	     -3.20470612	      3.37212479	      4.11084973
    132.82000000	      0.17622284	     10.23189824	     -3.16058778	      3.38871625	      4.22590425
